<?xml version="1.0" encoding="iso-8859-1"?>
<!-- Generator: Adobe Illustrator 19.0.0, SVG Export Plug-In . SVG Version: 6.00 Build 0)  -->
<svg version="1.1" id="Capa_1" xmlns="http://www.w3.org/2000/svg" xmlns:xlink="http://www.w3.org/1999/xlink" x="0px" y="0px"
	 viewBox="0 0 512 512" style="enable-background:new 0 0 512 512;" xml:space="preserve">
<g>
	<g>
		<path d="M271.38,193.215c-10.24,6.5-16.41,18.68-20.1,30.51l28.15-17.84l16.06,25.34l-28.16,17.85
			c12.65,1.67,26.29,1.12,36.22-5.19c8.4-5.33,14.06-14.49,17.86-24.14c3.81-9.65,5.77-19.8,6.76-27.11
			C312.52,187.745,287.23,183.155,271.38,193.215z"/>
	</g>
</g>
<g>
	<g>
		<path d="M475.64,161.665c-18.7-26.63-49.29-42.53-81.83-42.53H272.05c-18.2,0-36.06,4.97-51.65,14.37l-91,54.89l-67.76,22.59
			C24.77,223.265,0,257.625,0,296.495v66.37h26.11c-0.99-4.85-1.51-9.87-1.51-15c0-9.87,1.92-19.31,5.4-27.95
			c11.1-27.55,38.11-47.05,69.6-47.05c36.23,0,66.53,25.81,73.49,60c0.99,4.85,1.51,9.87,1.51,15s-0.52,10.15-1.51,15H339.2
			c-0.99-4.85-1.51-9.87-1.51-15s0.52-10.15,1.51-15c6.96-34.19,37.27-60,73.49-60c31.22,0,58.03,19.16,69.31,46.34
			c3.67,8.83,5.69,18.52,5.69,28.66c0,5.13-0.52,10.15-1.51,15H512v-149.41L475.64,161.665z M359.16,182.895
			c-0.06,2.54-1.88,62.41-39.53,86.32c-6.25,3.97-12.97,6.62-19.85,8.28c-6.88,1.66-13.91,2.33-20.78,2.33
			c-19.06,0-36.88-5.15-46.63-8.59h-0.01l-21.13,13.4l-16.06-25.34l21.19-13.43c1.82-17.79,9.21-59.1,38.93-77.97
			c37.65-23.91,92.61-0.09,94.93,0.94l9.17,4.05L359.16,182.895z"/>
	</g>
</g>
<g>
	<g>
		<path d="M99.6,302.865c-24.85,0-45,20.15-45,45c0,24.85,20.15,45,45,45c24.85,0,45-20.15,45-45S124.45,302.865,99.6,302.865z"/>
	</g>
</g>
<g>
	<g>
		<path d="M412.69,302.865c-24.85,0-45,20.15-45,45c0,24.85,20.15,45,45,45c24.85,0,45-20.15,45-45S437.54,302.865,412.69,302.865z"
			/>
	</g>
</g>
<g>
</g>
<g>
</g>
<g>
</g>
<g>
</g>
<g>
</g>
<g>
</g>
<g>
</g>
<g>
</g>
<g>
</g>
<g>
</g>
<g>
</g>
<g>
</g>
<g>
</g>
<g>
</g>
<g>
</g>
</svg>
