<svg height="512" viewBox="0 0 16 16" width="512" xmlns="http://www.w3.org/2000/svg"><path d="m15.2773 4.08398-1.5-1c-.131348-.0888672-.297363-.108398-.448242-.0537109l-5.08105 1.84766-1.02441-2.04883c-.255859-.511231-.77002-.829102-1.3418-.829102h-1.88184v-1h2v-1h-5v1h2v1h-1.5c-.827148 0-1.5.672852-1.5 1.5v5c0 .827148.672852 1.5 1.5 1.5h6.53174c.446289 0 .866699-.196777 1.15234-.539551l4.4126-5.29541 1.12598.750977.554687-.832031z" transform="translate(0 3)"/><path d="m1 0s-1 1.00006-1 2.00006c0 .552246.447693 1 1 1s1-.447754 1-1c0-1.00037-1-2.00006-1-2.00006z" transform="translate(14 8)"/></svg>